PathFileType	4	(X/Y/Z)	Patient4_TMGait_0pt5_02_left_05.trc.trc
DataRate	CameraRate	NumFrames	NumMarkers	Units	OrigDataRate	OrigDataStartFrame	OrigNumFrames
74.468085106383	74.468085106383	4	33	mm	74.468085106383	71	       141
Frame#	Time	Sacral			L.Shoulder			Chest			R.Shoulder			Neck			R.ASIS			L.ASIS			R.Thigh.Superior			R.Thigh.Lateral			R.Thigh.Inferior			R.Patella			L.Thigh.Superior			L.Thigh.Lateral			L.Thigh.Inferior			L.Patella			L.Shank.Superior			L.Shank.Lateral			L.Shank.Inferior			R.Shank.Superior			R.Shank.Lateral			R.Shank.Inferior			R.Heel			R.Midfoot.Superior			R.Midfoot.Lateral			R.Toe			L.Heel			L.Midfoot.Lateral			L.Midfoot.Superior			L.Toe			L.Elbow			L.Wrist			R.Elbow			R.Wrist			
		X1	Y1	Z1	X2	Y2	Z2	X3	Y3	Z3	X4	Y4	Z4	X5	Y5	Z5	X6	Y6	Z6	X7	Y7	Z7	X8	Y8	Z8	X9	Y9	Z9	X10	Y10	Z10	X11	Y11	Z11	X12	Y12	Z12	X13	Y13	Z13	X14	Y14	Z14	X15	Y15	Z15	X16	Y16	Z16	X17	Y17	Z17	X18	Y18	Z18	X19	Y19	Z19	X20	Y20	Z20	X21	Y21	Z21	X22	Y22	Z22	X23	Y23	Z23	X24	Y24	Z24	X25	Y25	Z25	X26	Y26	Z26	X27	Y27	Z27	X28	Y28	Z28	X29	Y29	Z29	X30	Y30	Z30	X31	Y31	Z31	X32	Y32	Z32	X33	Y33	Z33	

71	6.690000000000	531.715780128826	1008.236937199761	434.972878660772	730.853870947812	1424.756484099635	251.752251431015	815.175338535198	1361.132515763255	425.600101514982	717.319228232531	1446.716961459247	587.003811180234	715.581379574762	1492.990974561571	399.077756297838	746.179276311647	941.376950877508	571.653979019115	757.439971339851	959.428917803498	295.469257971208	809.583918130674	759.892461379898	551.151490203363	753.937872807809	640.709020478806	618.127712882166	844.232485355946	597.509442080847	542.731731387810	872.608324242766	515.750152406151	558.849593400113	763.514371184885	735.689135146410	325.572626926997	650.996106118375	637.371025824585	264.675565267347	713.952202957710	547.626703334086	330.459647280052	701.546950465362	481.428056403529	341.030084024919	672.652632728199	414.580621037491	335.188089303900	578.204666446111	302.053372896029	287.053747653395	625.208664580376	192.108104697046	364.854047528950	858.693921798887	430.587879031861	566.671913205469	806.990079089858	314.943430859419	626.009188140642	881.612276264459	231.945374393519	576.438108384506	795.667586734638	43.756523801129	544.343472681246	955.049711095109	121.032029416987	585.824736805818	879.948090251966	42.045422137556	618.387244290143	1081.101733068257	87.761533525078	612.674371024436	494.101368935789	37.643086979457	414.187046674166	568.576038290718	34.330056883023	333.781365818454	651.555438211785	95.341204852449	359.714250220547	779.909714622448	45.184379303658	334.118396555174	767.498442112242	1077.620884449526	124.749568431156	1005.494128348039	974.515875016974	148.372791825173	564.196592631379	1146.157446375314	710.707262018267	531.818646283367	889.808616527136	747.482786787502	
72	6.703428571429	532.969976521933	1006.631922913945	436.127230827302	730.517786408740	1423.676871780859	253.673390685658	814.913924598193	1360.458502127943	427.610382926757	716.528453466305	1445.747984067695	588.833582164765	714.896794808155	1491.852384472451	400.949950776071	747.530349462848	939.492328239597	572.911025611594	758.705079955890	958.899021556634	296.869391817144	810.142602205882	756.721746972447	552.080486619799	752.273906873216	637.648700837345	617.596830088138	842.916526738908	594.387633224485	542.707166800581	870.446733442528	513.091538648365	557.777800867988	763.259997310550	734.515234983723	326.108639298973	649.322893820799	637.232187363758	265.147300610585	711.226541653686	546.755216700107	330.758783818473	698.463839589152	480.449422178598	341.131207444703	668.694832371658	414.022993241942	335.362087242078	573.252599464004	302.331629826744	287.130014509355	619.350503428129	191.835828297812	364.729205841502	857.046696621091	427.841446721757	565.273435519035	805.669442806662	311.779969388881	623.843418478377	880.829195520627	229.380206912653	574.214233220173	795.095071405334	42.266508262316	541.836731187907	954.952821387314	118.649409754321	583.155796142653	879.174111067684	40.760161407610	616.085803842575	1080.567593963900	84.453134244908	610.263549120349	487.330459647710	37.715372519530	414.040916054524	561.824798413481	34.278132437642	333.712339551333	644.847366976023	95.254377110246	359.620314658948	773.178292228670	44.997184327028	334.106144347880	768.422152232041	1077.103324010595	125.919802303967	1008.694515232700	980.439797212179	150.229015259047	560.793758909034	1147.390853416468	712.855935854881	526.520350747151	891.356483709729	749.937195135603	
73	6.716857142857	534.333092851997	1005.013245303387	437.528870061116	730.121136911716	1422.611704887701	255.722633193896	814.675858357226	1359.866530838099	429.738518003230	715.712691198181	1444.772590956509	590.815611369684	714.173821043728	1490.737649332794	402.970240580579	749.096170264906	937.675664664754	574.255977248273	760.042198968140	958.327409308337	298.408223256353	811.394761100361	753.854886859655	552.920239012276	751.494282876244	634.929633371284	617.078198158060	842.363779818533	591.702283056721	542.542434747368	869.038376420877	510.596971296313	556.626974009204	763.230305112410	733.340883622924	326.764914009702	647.985487377662	637.036179523579	265.813859368916	708.943272670099	545.837179659872	331.230346846749	695.861871851050	479.376728732185	341.433470028054	665.138724961578	413.367514096971	335.713563774544	568.588845702326	302.645539184361	287.339787862611	613.647711273676	191.534436709462	364.675842018622	855.749296601878	425.050609025787	563.878851735496	804.136411986043	308.927922451534	621.897813813317	879.070010856361	226.650290901553	572.062434219903	792.170366224438	41.273978361967	539.780088130511	953.017930291047	115.862718838694	580.464237530373	876.169549396470	39.607689873841	614.086851618542	1078.046548795128	80.033548246978	607.647909706203	480.565296777475	37.829768951595	413.868212548820	555.086690700631	34.247045898116	333.638077241702	638.158659528467	95.180737450317	359.530373637276	766.459279418358	44.775594676365	334.089218854201	769.134900613784	1076.522979949290	127.283990620708	1011.244434044610	985.498492211711	152.112515454370	557.948955277118	1148.159928506281	714.936314251539	522.523855023453	892.293781566093	752.337372357590	
74	6.730285714286	535.760115715958	1003.451701073107	439.160737841880	729.714403727957	1421.618495126020	257.893263505321	814.484573038267	1359.376924810008	431.977427962647	714.910038128068	1443.822185491781	592.948190715874	713.466042155902	1489.698962585695	405.139292199098	750.824998174344	936.008265689724	575.684897815141	761.399339714229	957.732528282707	300.071442951256	813.270218493176	751.415018643208	553.648669879464	751.637400902808	632.675517963582	616.645665323227	842.572963310005	589.571534554687	542.258190171181	868.388534816567	508.394643750367	555.447678768933	763.416010953314	732.200411261904	327.553423435241	647.003057329697	636.786401689324	266.691383692556	707.139043200765	544.895135793612	331.896194978835	693.771694182454	478.221403428105	341.966811023376	662.023166190810	412.616170723071	336.264528301432	564.248804982599	303.011348857150	287.699834092974	608.121011614472	191.220840700172	364.708509961638	854.895808732733	422.362860479065	562.577943555443	802.632945933939	306.480670520440	620.323573707945	876.641801599022	223.900443370701	570.092868906582	787.429295989089	40.704454105560	538.225719008548	949.633862429789	112.866493710703	577.910065595886	871.458939420080	38.595437851218	612.464501412903	1073.995325598664	74.931826309896	605.006113415702	473.809911136953	38.027260310211	413.666434384114	548.368812817229	34.257880213799	333.561733946931	631.503773727346	95.133838488961	359.446545712941	759.758823959744	44.506787260829	334.068821992456	769.606096870500	1075.914296775166	128.857254151367	1013.152733870105	989.627872190506	154.020320051451	555.761925221021	1148.423613391305	716.950501213068	519.892293049632	892.586356145934	754.649949189043	
